<mxfile host="app.diagrams.net" agent="Mozilla/5.0 (Windows NT 10.0; Win64; x64) AppleWebKit/537.36 (KHTML, like Gecko) Chrome/130.0.0.0 Safari/537.36" version="25.0.3">
  <diagram name="Trang-1" id="YC1g6Aa9ZJxW77goYBFT">
    <mxGraphModel dx="2038" dy="3272" grid="1" gridSize="10" guides="1" tooltips="1" connect="1" arrows="1" fold="1" page="1" pageScale="1" pageWidth="827" pageHeight="1169" math="0" shadow="0">
      <root>
        <mxCell id="0" />
        <mxCell id="1" parent="0" />
        <mxCell id="CZlc9L8-ADQLd4C6MPNS-1" value="Admin" style="shape=umlActor;verticalLabelPosition=bottom;verticalAlign=top;html=1;outlineConnect=0;" parent="1" vertex="1">
          <mxGeometry x="700" y="120" width="40" height="60" as="geometry" />
        </mxCell>
        <mxCell id="CZlc9L8-ADQLd4C6MPNS-2" value="Student" style="shape=umlActor;verticalLabelPosition=bottom;verticalAlign=top;html=1;outlineConnect=0;" parent="1" vertex="1">
          <mxGeometry x="90" y="-230" width="40" height="60" as="geometry" />
        </mxCell>
        <mxCell id="CZlc9L8-ADQLd4C6MPNS-3" value="lecturer" style="shape=umlActor;verticalLabelPosition=bottom;verticalAlign=top;html=1;outlineConnect=0;" parent="1" vertex="1">
          <mxGeometry x="90" y="110" width="40" height="60" as="geometry" />
        </mxCell>
        <mxCell id="CZlc9L8-ADQLd4C6MPNS-12" value="Đăng nhập" style="ellipse;whiteSpace=wrap;html=1;" parent="1" vertex="1">
          <mxGeometry x="340" y="-130" width="100" height="50" as="geometry" />
        </mxCell>
        <mxCell id="CZlc9L8-ADQLd4C6MPNS-13" value="Xem lớp học phần" style="ellipse;whiteSpace=wrap;html=1;" parent="1" vertex="1">
          <mxGeometry x="340" y="-250" width="100" height="50" as="geometry" />
        </mxCell>
        <mxCell id="CZlc9L8-ADQLd4C6MPNS-15" value="Xem kết quả học tập" style="ellipse;whiteSpace=wrap;html=1;" parent="1" vertex="1">
          <mxGeometry x="340" y="-370" width="100" height="50" as="geometry" />
        </mxCell>
        <mxCell id="CZlc9L8-ADQLd4C6MPNS-16" value="Đăng ký lớp học phần" style="ellipse;whiteSpace=wrap;html=1;" parent="1" vertex="1">
          <mxGeometry x="340" y="-310" width="100" height="50" as="geometry" />
        </mxCell>
        <mxCell id="CZlc9L8-ADQLd4C6MPNS-17" value="Hủy lớp học phần đăng ký" style="ellipse;whiteSpace=wrap;html=1;" parent="1" vertex="1">
          <mxGeometry x="340" y="-190" width="100" height="50" as="geometry" />
        </mxCell>
        <mxCell id="CZlc9L8-ADQLd4C6MPNS-18" value="Xem danh sách sinh viên theo lớp học phần" style="ellipse;whiteSpace=wrap;html=1;" parent="1" vertex="1">
          <mxGeometry x="340" y="50" width="100" height="50" as="geometry" />
        </mxCell>
        <mxCell id="CZlc9L8-ADQLd4C6MPNS-19" value="Nhập điểm&amp;nbsp;" style="ellipse;whiteSpace=wrap;html=1;" parent="1" vertex="1">
          <mxGeometry x="340" y="115" width="100" height="50" as="geometry" />
        </mxCell>
        <mxCell id="CZlc9L8-ADQLd4C6MPNS-20" value="Quản lý học phần" style="ellipse;whiteSpace=wrap;html=1;" parent="1" vertex="1">
          <mxGeometry x="340" y="360" width="100" height="50" as="geometry" />
        </mxCell>
        <mxCell id="CZlc9L8-ADQLd4C6MPNS-21" value="Xem danh sách giảng viên" style="ellipse;whiteSpace=wrap;html=1;" parent="1" vertex="1">
          <mxGeometry x="340" y="300" width="100" height="50" as="geometry" />
        </mxCell>
        <mxCell id="CZlc9L8-ADQLd4C6MPNS-23" value="Xem danh sách sinh viên&amp;nbsp;" style="ellipse;whiteSpace=wrap;html=1;" parent="1" vertex="1">
          <mxGeometry x="340" y="240" width="100" height="50" as="geometry" />
        </mxCell>
        <mxCell id="CZlc9L8-ADQLd4C6MPNS-29" value="Xem thống kê" style="ellipse;whiteSpace=wrap;html=1;" parent="1" vertex="1">
          <mxGeometry x="340" y="-10" width="100" height="50" as="geometry" />
        </mxCell>
        <mxCell id="CZlc9L8-ADQLd4C6MPNS-31" value="Quản lý lớp học phần" style="ellipse;whiteSpace=wrap;html=1;" parent="1" vertex="1">
          <mxGeometry x="340" y="180" width="100" height="50" as="geometry" />
        </mxCell>
        <mxCell id="CZlc9L8-ADQLd4C6MPNS-33" value="Đăng xuất" style="ellipse;whiteSpace=wrap;html=1;" parent="1" vertex="1">
          <mxGeometry x="340" y="-70" width="100" height="50" as="geometry" />
        </mxCell>
        <mxCell id="MwszoVCs4XspZuCof_MI-9" value="" style="endArrow=open;endFill=1;endSize=12;html=1;rounded=0;entryX=0;entryY=0.5;entryDx=0;entryDy=0;" parent="1" target="CZlc9L8-ADQLd4C6MPNS-15" edge="1">
          <mxGeometry width="160" relative="1" as="geometry">
            <mxPoint x="130" y="-220" as="sourcePoint" />
            <mxPoint x="350" y="-395" as="targetPoint" />
          </mxGeometry>
        </mxCell>
        <mxCell id="MwszoVCs4XspZuCof_MI-10" value="" style="endArrow=open;endFill=1;endSize=12;html=1;rounded=0;entryX=0;entryY=0.5;entryDx=0;entryDy=0;" parent="1" target="CZlc9L8-ADQLd4C6MPNS-16" edge="1">
          <mxGeometry width="160" relative="1" as="geometry">
            <mxPoint x="140" y="-210" as="sourcePoint" />
            <mxPoint x="360" y="-385" as="targetPoint" />
          </mxGeometry>
        </mxCell>
        <mxCell id="MwszoVCs4XspZuCof_MI-11" value="" style="endArrow=open;endFill=1;endSize=12;html=1;rounded=0;entryX=0;entryY=0.5;entryDx=0;entryDy=0;" parent="1" target="CZlc9L8-ADQLd4C6MPNS-13" edge="1">
          <mxGeometry width="160" relative="1" as="geometry">
            <mxPoint x="140" y="-200" as="sourcePoint" />
            <mxPoint x="370" y="-375" as="targetPoint" />
          </mxGeometry>
        </mxCell>
        <mxCell id="MwszoVCs4XspZuCof_MI-12" value="" style="endArrow=open;endFill=1;endSize=12;html=1;rounded=0;entryX=0;entryY=0.5;entryDx=0;entryDy=0;" parent="1" target="CZlc9L8-ADQLd4C6MPNS-17" edge="1">
          <mxGeometry width="160" relative="1" as="geometry">
            <mxPoint x="140" y="-190" as="sourcePoint" />
            <mxPoint x="380" y="-365" as="targetPoint" />
          </mxGeometry>
        </mxCell>
        <mxCell id="MwszoVCs4XspZuCof_MI-13" value="" style="endArrow=open;endFill=1;endSize=12;html=1;rounded=0;entryX=0.02;entryY=0.298;entryDx=0;entryDy=0;entryPerimeter=0;" parent="1" target="CZlc9L8-ADQLd4C6MPNS-12" edge="1">
          <mxGeometry width="160" relative="1" as="geometry">
            <mxPoint x="140" y="-180" as="sourcePoint" />
            <mxPoint x="390" y="-355" as="targetPoint" />
          </mxGeometry>
        </mxCell>
        <mxCell id="MwszoVCs4XspZuCof_MI-16" value="" style="endArrow=open;endFill=1;endSize=12;html=1;rounded=0;entryX=0;entryY=0.5;entryDx=0;entryDy=0;" parent="1" target="CZlc9L8-ADQLd4C6MPNS-33" edge="1">
          <mxGeometry width="160" relative="1" as="geometry">
            <mxPoint x="140" y="-170" as="sourcePoint" />
            <mxPoint x="312" y="-105" as="targetPoint" />
          </mxGeometry>
        </mxCell>
        <mxCell id="MwszoVCs4XspZuCof_MI-18" value="" style="endArrow=open;endFill=1;endSize=12;html=1;rounded=0;entryX=0;entryY=0.5;entryDx=0;entryDy=0;" parent="1" target="CZlc9L8-ADQLd4C6MPNS-12" edge="1">
          <mxGeometry width="160" relative="1" as="geometry">
            <mxPoint x="120" y="115" as="sourcePoint" />
            <mxPoint x="310" y="290" as="targetPoint" />
          </mxGeometry>
        </mxCell>
        <mxCell id="MwszoVCs4XspZuCof_MI-19" value="" style="endArrow=open;endFill=1;endSize=12;html=1;rounded=0;entryX=0.022;entryY=0.656;entryDx=0;entryDy=0;entryPerimeter=0;" parent="1" target="CZlc9L8-ADQLd4C6MPNS-33" edge="1">
          <mxGeometry width="160" relative="1" as="geometry">
            <mxPoint x="130" y="125" as="sourcePoint" />
            <mxPoint x="350" y="-95" as="targetPoint" />
          </mxGeometry>
        </mxCell>
        <mxCell id="MwszoVCs4XspZuCof_MI-21" value="" style="endArrow=open;endFill=1;endSize=12;html=1;rounded=0;entryX=0;entryY=0.5;entryDx=0;entryDy=0;" parent="1" target="CZlc9L8-ADQLd4C6MPNS-18" edge="1">
          <mxGeometry width="160" relative="1" as="geometry">
            <mxPoint x="150" y="145" as="sourcePoint" />
            <mxPoint x="370" y="-75" as="targetPoint" />
          </mxGeometry>
        </mxCell>
        <mxCell id="MwszoVCs4XspZuCof_MI-22" value="" style="endArrow=open;endFill=1;endSize=12;html=1;rounded=0;entryX=0;entryY=0.5;entryDx=0;entryDy=0;" parent="1" target="CZlc9L8-ADQLd4C6MPNS-19" edge="1">
          <mxGeometry width="160" relative="1" as="geometry">
            <mxPoint x="160" y="155" as="sourcePoint" />
            <mxPoint x="380" y="-65" as="targetPoint" />
          </mxGeometry>
        </mxCell>
        <mxCell id="MwszoVCs4XspZuCof_MI-23" value="" style="endArrow=open;endFill=1;endSize=12;html=1;rounded=0;entryX=1;entryY=0.5;entryDx=0;entryDy=0;" parent="1" target="CZlc9L8-ADQLd4C6MPNS-12" edge="1">
          <mxGeometry width="160" relative="1" as="geometry">
            <mxPoint x="710" y="120" as="sourcePoint" />
            <mxPoint x="890" y="100" as="targetPoint" />
          </mxGeometry>
        </mxCell>
        <mxCell id="MwszoVCs4XspZuCof_MI-24" value="" style="endArrow=open;endFill=1;endSize=12;html=1;rounded=0;entryX=1;entryY=0.5;entryDx=0;entryDy=0;" parent="1" target="CZlc9L8-ADQLd4C6MPNS-33" edge="1">
          <mxGeometry width="160" relative="1" as="geometry">
            <mxPoint x="700" y="120" as="sourcePoint" />
            <mxPoint x="450" y="-95" as="targetPoint" />
          </mxGeometry>
        </mxCell>
        <mxCell id="MwszoVCs4XspZuCof_MI-26" value="" style="endArrow=open;endFill=1;endSize=12;html=1;rounded=0;entryX=1;entryY=0.5;entryDx=0;entryDy=0;" parent="1" target="CZlc9L8-ADQLd4C6MPNS-31" edge="1">
          <mxGeometry width="160" relative="1" as="geometry">
            <mxPoint x="690" y="140" as="sourcePoint" />
            <mxPoint x="460" y="-25" as="targetPoint" />
          </mxGeometry>
        </mxCell>
        <mxCell id="MwszoVCs4XspZuCof_MI-28" value="" style="endArrow=open;endFill=1;endSize=12;html=1;rounded=0;" parent="1" target="CZlc9L8-ADQLd4C6MPNS-23" edge="1">
          <mxGeometry width="160" relative="1" as="geometry">
            <mxPoint x="690" y="180" as="sourcePoint" />
            <mxPoint x="440" y="275" as="targetPoint" />
          </mxGeometry>
        </mxCell>
        <mxCell id="MwszoVCs4XspZuCof_MI-30" value="" style="endArrow=open;endFill=1;endSize=12;html=1;rounded=0;entryX=1;entryY=0.5;entryDx=0;entryDy=0;" parent="1" target="CZlc9L8-ADQLd4C6MPNS-21" edge="1">
          <mxGeometry width="160" relative="1" as="geometry">
            <mxPoint x="710" y="200" as="sourcePoint" />
            <mxPoint x="447" y="318" as="targetPoint" />
          </mxGeometry>
        </mxCell>
        <mxCell id="MwszoVCs4XspZuCof_MI-31" value="" style="endArrow=open;endFill=1;endSize=12;html=1;rounded=0;entryX=1;entryY=0.5;entryDx=0;entryDy=0;" parent="1" target="CZlc9L8-ADQLd4C6MPNS-20" edge="1">
          <mxGeometry width="160" relative="1" as="geometry">
            <mxPoint x="720" y="210" as="sourcePoint" />
            <mxPoint x="457" y="328" as="targetPoint" />
          </mxGeometry>
        </mxCell>
        <mxCell id="FlfesF0UdyF4f3H3UJaI-3" value="Đánh giá giảng viên" style="ellipse;whiteSpace=wrap;html=1;" parent="1" vertex="1">
          <mxGeometry x="340" y="-430" width="100" height="50" as="geometry" />
        </mxCell>
        <mxCell id="FlfesF0UdyF4f3H3UJaI-5" value="" style="endArrow=open;endFill=1;endSize=12;html=1;rounded=0;entryX=0;entryY=0.5;entryDx=0;entryDy=0;" parent="1" target="FlfesF0UdyF4f3H3UJaI-3" edge="1">
          <mxGeometry width="160" relative="1" as="geometry">
            <mxPoint x="110" y="-235" as="sourcePoint" />
            <mxPoint x="330" y="-410" as="targetPoint" />
          </mxGeometry>
        </mxCell>
        <mxCell id="dAeShRe3gcyDn0yOVWNU-3" value="" style="endArrow=open;endFill=1;endSize=12;html=1;rounded=0;entryX=0;entryY=0.5;entryDx=0;entryDy=0;" parent="1" target="CZlc9L8-ADQLd4C6MPNS-29" edge="1">
          <mxGeometry width="160" relative="1" as="geometry">
            <mxPoint x="140" y="135" as="sourcePoint" />
            <mxPoint x="352" y="-27" as="targetPoint" />
          </mxGeometry>
        </mxCell>
        <mxCell id="dAeShRe3gcyDn0yOVWNU-4" value="" style="endArrow=open;endFill=1;endSize=12;html=1;rounded=0;entryX=-0.011;entryY=0.345;entryDx=0;entryDy=0;entryPerimeter=0;" parent="1" target="CZlc9L8-ADQLd4C6MPNS-29" edge="1">
          <mxGeometry width="160" relative="1" as="geometry">
            <mxPoint x="150" y="-160" as="sourcePoint" />
            <mxPoint x="350" y="-35" as="targetPoint" />
          </mxGeometry>
        </mxCell>
        <mxCell id="-qxYex-KwS0y-Op3rTVl-1" value="Admin" style="shape=umlActor;verticalLabelPosition=bottom;verticalAlign=top;html=1;outlineConnect=0;" parent="1" vertex="1">
          <mxGeometry x="1040" y="-95" width="40" height="60" as="geometry" />
        </mxCell>
        <mxCell id="-qxYex-KwS0y-Op3rTVl-38" value="Đăng xuất" style="ellipse;whiteSpace=wrap;html=1;" parent="1" vertex="1">
          <mxGeometry x="1141" y="-310" width="100" height="50" as="geometry" />
        </mxCell>
        <mxCell id="-qxYex-KwS0y-Op3rTVl-40" value="Đăng nhập" style="ellipse;whiteSpace=wrap;html=1;" parent="1" vertex="1">
          <mxGeometry x="1191" y="-90" width="100" height="50" as="geometry" />
        </mxCell>
        <mxCell id="-qxYex-KwS0y-Op3rTVl-43" value="Quản lý học phần" style="ellipse;whiteSpace=wrap;html=1;" parent="1" vertex="1">
          <mxGeometry x="1410" y="-380" width="100" height="50" as="geometry" />
        </mxCell>
        <mxCell id="-qxYex-KwS0y-Op3rTVl-44" value="Quản lý lớp học phần" style="ellipse;whiteSpace=wrap;html=1;" parent="1" vertex="1">
          <mxGeometry x="1410" y="125" width="100" height="50" as="geometry" />
        </mxCell>
        <mxCell id="-qxYex-KwS0y-Op3rTVl-45" value="Xem danh sách sinh viên&amp;nbsp;" style="ellipse;whiteSpace=wrap;html=1;" parent="1" vertex="1">
          <mxGeometry x="1410" y="-200" width="100" height="50" as="geometry" />
        </mxCell>
        <mxCell id="-qxYex-KwS0y-Op3rTVl-47" value="Xem danh sách giảng viên" style="ellipse;whiteSpace=wrap;html=1;" parent="1" vertex="1">
          <mxGeometry x="1410" y="10" width="100" height="50" as="geometry" />
        </mxCell>
        <mxCell id="-qxYex-KwS0y-Op3rTVl-49" value="" style="endArrow=none;html=1;rounded=0;exitX=0.75;exitY=0.1;exitDx=0;exitDy=0;exitPerimeter=0;" parent="1" source="-qxYex-KwS0y-Op3rTVl-1" target="-qxYex-KwS0y-Op3rTVl-43" edge="1">
          <mxGeometry width="50" height="50" relative="1" as="geometry">
            <mxPoint x="1220" y="-100" as="sourcePoint" />
            <mxPoint x="1320" y="-100" as="targetPoint" />
          </mxGeometry>
        </mxCell>
        <mxCell id="-qxYex-KwS0y-Op3rTVl-53" value="" style="endArrow=none;html=1;rounded=0;entryX=0;entryY=0.5;entryDx=0;entryDy=0;" parent="1" source="-qxYex-KwS0y-Op3rTVl-1" target="-qxYex-KwS0y-Op3rTVl-45" edge="1">
          <mxGeometry width="50" height="50" relative="1" as="geometry">
            <mxPoint x="1230" y="-84" as="sourcePoint" />
            <mxPoint x="1393" y="-311" as="targetPoint" />
          </mxGeometry>
        </mxCell>
        <mxCell id="-qxYex-KwS0y-Op3rTVl-54" value="Thêm học phần" style="ellipse;whiteSpace=wrap;html=1;" parent="1" vertex="1">
          <mxGeometry x="1640" y="-490" width="100" height="50" as="geometry" />
        </mxCell>
        <mxCell id="-qxYex-KwS0y-Op3rTVl-55" value="Sửa học phần" style="ellipse;whiteSpace=wrap;html=1;" parent="1" vertex="1">
          <mxGeometry x="1640" y="-400" width="100" height="50" as="geometry" />
        </mxCell>
        <mxCell id="-qxYex-KwS0y-Op3rTVl-56" value="Xóa học phần" style="ellipse;whiteSpace=wrap;html=1;" parent="1" vertex="1">
          <mxGeometry x="1640" y="-310" width="100" height="50" as="geometry" />
        </mxCell>
        <mxCell id="-qxYex-KwS0y-Op3rTVl-57" value="" style="endArrow=none;html=1;rounded=0;entryX=0;entryY=0.5;entryDx=0;entryDy=0;" parent="1" source="-qxYex-KwS0y-Op3rTVl-1" target="-qxYex-KwS0y-Op3rTVl-40" edge="1">
          <mxGeometry width="50" height="50" relative="1" as="geometry">
            <mxPoint x="1090" y="-61" as="sourcePoint" />
            <mxPoint x="1420" y="-165" as="targetPoint" />
          </mxGeometry>
        </mxCell>
        <mxCell id="-qxYex-KwS0y-Op3rTVl-59" value="Thêm lớp học phần" style="ellipse;whiteSpace=wrap;html=1;" parent="1" vertex="1">
          <mxGeometry x="1610" y="30" width="100" height="50" as="geometry" />
        </mxCell>
        <mxCell id="-qxYex-KwS0y-Op3rTVl-61" value="Sửa lớp học phần" style="ellipse;whiteSpace=wrap;html=1;" parent="1" vertex="1">
          <mxGeometry x="1610" y="115" width="100" height="50" as="geometry" />
        </mxCell>
        <mxCell id="-qxYex-KwS0y-Op3rTVl-62" value="Xóa lớp học phần" style="ellipse;whiteSpace=wrap;html=1;" parent="1" vertex="1">
          <mxGeometry x="1610" y="190" width="100" height="50" as="geometry" />
        </mxCell>
        <mxCell id="-qxYex-KwS0y-Op3rTVl-65" value="" style="endArrow=none;html=1;rounded=0;entryX=0;entryY=0.5;entryDx=0;entryDy=0;" parent="1" source="-qxYex-KwS0y-Op3rTVl-1" target="-qxYex-KwS0y-Op3rTVl-47" edge="1">
          <mxGeometry width="50" height="50" relative="1" as="geometry">
            <mxPoint x="1080" y="-35" as="sourcePoint" />
            <mxPoint x="1440" y="-281" as="targetPoint" />
          </mxGeometry>
        </mxCell>
        <mxCell id="-qxYex-KwS0y-Op3rTVl-66" value="" style="endArrow=none;html=1;rounded=0;entryX=0;entryY=0.3;entryDx=0;entryDy=0;entryPerimeter=0;" parent="1" source="-qxYex-KwS0y-Op3rTVl-1" target="-qxYex-KwS0y-Op3rTVl-44" edge="1">
          <mxGeometry width="50" height="50" relative="1" as="geometry">
            <mxPoint x="1090" y="-35" as="sourcePoint" />
            <mxPoint x="1420" y="59" as="targetPoint" />
          </mxGeometry>
        </mxCell>
        <mxCell id="-qxYex-KwS0y-Op3rTVl-68" value="&amp;lt;&amp;lt;extend&amp;gt;&amp;gt;" style="endArrow=open;endSize=12;dashed=1;html=1;rounded=0;exitX=0;exitY=0.5;exitDx=0;exitDy=0;entryX=1;entryY=0;entryDx=0;entryDy=0;" parent="1" source="-qxYex-KwS0y-Op3rTVl-54" target="-qxYex-KwS0y-Op3rTVl-43" edge="1">
          <mxGeometry x="-0.0015" width="160" relative="1" as="geometry">
            <mxPoint x="1590" y="-280" as="sourcePoint" />
            <mxPoint x="1750" y="-280" as="targetPoint" />
            <mxPoint as="offset" />
          </mxGeometry>
        </mxCell>
        <mxCell id="-qxYex-KwS0y-Op3rTVl-69" value="&amp;lt;&amp;lt;extend&amp;gt;&amp;gt;" style="endArrow=open;endSize=12;dashed=1;html=1;rounded=0;exitX=0;exitY=0.5;exitDx=0;exitDy=0;entryX=1;entryY=0.5;entryDx=0;entryDy=0;" parent="1" source="-qxYex-KwS0y-Op3rTVl-55" target="-qxYex-KwS0y-Op3rTVl-43" edge="1">
          <mxGeometry width="160" relative="1" as="geometry">
            <mxPoint x="1650" y="-455" as="sourcePoint" />
            <mxPoint x="1506" y="-362" as="targetPoint" />
          </mxGeometry>
        </mxCell>
        <mxCell id="-qxYex-KwS0y-Op3rTVl-70" value="&amp;lt;&amp;lt;extend&amp;gt;&amp;gt;" style="endArrow=open;endSize=12;dashed=1;html=1;rounded=0;exitX=0.023;exitY=0.304;exitDx=0;exitDy=0;entryX=0.946;entryY=0.727;entryDx=0;entryDy=0;exitPerimeter=0;entryPerimeter=0;" parent="1" source="-qxYex-KwS0y-Op3rTVl-56" target="-qxYex-KwS0y-Op3rTVl-43" edge="1">
          <mxGeometry width="160" relative="1" as="geometry">
            <mxPoint x="1624" y="-283" as="sourcePoint" />
            <mxPoint x="1500" y="-350" as="targetPoint" />
          </mxGeometry>
        </mxCell>
        <mxCell id="-qxYex-KwS0y-Op3rTVl-71" value="&amp;lt;&amp;lt;extend&amp;gt;&amp;gt;" style="endArrow=open;endSize=12;dashed=1;html=1;rounded=0;entryX=1;entryY=0;entryDx=0;entryDy=0;" parent="1" source="-qxYex-KwS0y-Op3rTVl-59" target="-qxYex-KwS0y-Op3rTVl-44" edge="1">
          <mxGeometry width="160" relative="1" as="geometry">
            <mxPoint x="1604" y="7" as="sourcePoint" />
            <mxPoint x="1460" y="100" as="targetPoint" />
          </mxGeometry>
        </mxCell>
        <mxCell id="-qxYex-KwS0y-Op3rTVl-72" value="&amp;lt;&amp;lt;extend&amp;gt;&amp;gt;" style="endArrow=open;endSize=12;dashed=1;html=1;rounded=0;entryX=1;entryY=0.5;entryDx=0;entryDy=0;exitX=0;exitY=0.5;exitDx=0;exitDy=0;" parent="1" source="-qxYex-KwS0y-Op3rTVl-61" target="-qxYex-KwS0y-Op3rTVl-44" edge="1">
          <mxGeometry width="160" relative="1" as="geometry">
            <mxPoint x="1634" y="82" as="sourcePoint" />
            <mxPoint x="1506" y="143" as="targetPoint" />
          </mxGeometry>
        </mxCell>
        <mxCell id="-qxYex-KwS0y-Op3rTVl-73" value="&amp;lt;&amp;lt;extend&amp;gt;&amp;gt;" style="endArrow=open;endSize=12;dashed=1;html=1;rounded=0;entryX=1;entryY=1;entryDx=0;entryDy=0;exitX=0;exitY=0.5;exitDx=0;exitDy=0;" parent="1" source="-qxYex-KwS0y-Op3rTVl-62" target="-qxYex-KwS0y-Op3rTVl-44" edge="1">
          <mxGeometry width="160" relative="1" as="geometry">
            <mxPoint x="1644" y="92" as="sourcePoint" />
            <mxPoint x="1516" y="153" as="targetPoint" />
          </mxGeometry>
        </mxCell>
        <mxCell id="-qxYex-KwS0y-Op3rTVl-77" value="&amp;lt;&amp;lt;include&amp;gt;&amp;gt;" style="endArrow=open;endSize=12;dashed=1;html=1;rounded=0;exitX=0.368;exitY=1.06;exitDx=0;exitDy=0;entryX=0.769;entryY=0.104;entryDx=0;entryDy=0;exitPerimeter=0;entryPerimeter=0;" parent="1" source="-qxYex-KwS0y-Op3rTVl-43" target="-qxYex-KwS0y-Op3rTVl-40" edge="1">
          <mxGeometry width="160" relative="1" as="geometry">
            <mxPoint x="1447" y="-221" as="sourcePoint" />
            <mxPoint x="1310" y="-270" as="targetPoint" />
          </mxGeometry>
        </mxCell>
        <mxCell id="-qxYex-KwS0y-Op3rTVl-78" value="&amp;lt;&amp;lt;include&amp;gt;&amp;gt;" style="endArrow=open;endSize=12;dashed=1;html=1;rounded=0;entryX=1.002;entryY=0.304;entryDx=0;entryDy=0;entryPerimeter=0;" parent="1" source="-qxYex-KwS0y-Op3rTVl-45" target="-qxYex-KwS0y-Op3rTVl-40" edge="1">
          <mxGeometry width="160" relative="1" as="geometry">
            <mxPoint x="1457" y="-317" as="sourcePoint" />
            <mxPoint x="1278" y="-75" as="targetPoint" />
          </mxGeometry>
        </mxCell>
        <mxCell id="-qxYex-KwS0y-Op3rTVl-79" value="&amp;lt;&amp;lt;include&amp;gt;&amp;gt;" style="endArrow=open;endSize=12;dashed=1;html=1;rounded=0;entryX=0.969;entryY=0.793;entryDx=0;entryDy=0;entryPerimeter=0;" parent="1" source="-qxYex-KwS0y-Op3rTVl-47" target="-qxYex-KwS0y-Op3rTVl-40" edge="1">
          <mxGeometry width="160" relative="1" as="geometry">
            <mxPoint x="1467" y="-307" as="sourcePoint" />
            <mxPoint x="1288" y="-65" as="targetPoint" />
          </mxGeometry>
        </mxCell>
        <mxCell id="-qxYex-KwS0y-Op3rTVl-80" value="&amp;lt;&amp;lt;include&amp;gt;&amp;gt;" style="endArrow=open;endSize=12;dashed=1;html=1;rounded=0;exitX=0;exitY=0;exitDx=0;exitDy=0;entryX=0.769;entryY=0.971;entryDx=0;entryDy=0;entryPerimeter=0;" parent="1" source="-qxYex-KwS0y-Op3rTVl-44" target="-qxYex-KwS0y-Op3rTVl-40" edge="1">
          <mxGeometry width="160" relative="1" as="geometry">
            <mxPoint x="1477" y="-297" as="sourcePoint" />
            <mxPoint x="1298" y="-55" as="targetPoint" />
          </mxGeometry>
        </mxCell>
        <mxCell id="-qxYex-KwS0y-Op3rTVl-82" value="Lecture" style="shape=umlActor;verticalLabelPosition=bottom;verticalAlign=top;html=1;outlineConnect=0;" parent="1" vertex="1">
          <mxGeometry x="1040" y="1085" width="40" height="60" as="geometry" />
        </mxCell>
        <mxCell id="-qxYex-KwS0y-Op3rTVl-83" value="Đăng xuất" style="ellipse;whiteSpace=wrap;html=1;" parent="1" vertex="1">
          <mxGeometry x="1140" y="900" width="100" height="50" as="geometry" />
        </mxCell>
        <mxCell id="-qxYex-KwS0y-Op3rTVl-84" value="Đăng nhập" style="ellipse;whiteSpace=wrap;html=1;" parent="1" vertex="1">
          <mxGeometry x="1191" y="1090" width="100" height="50" as="geometry" />
        </mxCell>
        <mxCell id="-qxYex-KwS0y-Op3rTVl-87" value="Nhập điểm" style="ellipse;whiteSpace=wrap;html=1;" parent="1" vertex="1">
          <mxGeometry x="1410" y="1305" width="100" height="50" as="geometry" />
        </mxCell>
        <mxCell id="-qxYex-KwS0y-Op3rTVl-88" value="Xem thống kê" style="ellipse;whiteSpace=wrap;html=1;" parent="1" vertex="1">
          <mxGeometry x="1410" y="980" width="100" height="50" as="geometry" />
        </mxCell>
        <mxCell id="-qxYex-KwS0y-Op3rTVl-89" value="Xem danh sách sinh viên theo lớp học phần" style="ellipse;whiteSpace=wrap;html=1;" parent="1" vertex="1">
          <mxGeometry x="1410" y="1190" width="100" height="50" as="geometry" />
        </mxCell>
        <mxCell id="-qxYex-KwS0y-Op3rTVl-92" value="" style="endArrow=none;html=1;rounded=0;entryX=0;entryY=0.5;entryDx=0;entryDy=0;" parent="1" source="-qxYex-KwS0y-Op3rTVl-82" target="-qxYex-KwS0y-Op3rTVl-88" edge="1">
          <mxGeometry width="50" height="50" relative="1" as="geometry">
            <mxPoint x="1230" y="1096" as="sourcePoint" />
            <mxPoint x="1393" y="869" as="targetPoint" />
          </mxGeometry>
        </mxCell>
        <mxCell id="-qxYex-KwS0y-Op3rTVl-96" value="" style="endArrow=none;html=1;rounded=0;entryX=0;entryY=0.5;entryDx=0;entryDy=0;" parent="1" source="-qxYex-KwS0y-Op3rTVl-82" target="-qxYex-KwS0y-Op3rTVl-84" edge="1">
          <mxGeometry width="50" height="50" relative="1" as="geometry">
            <mxPoint x="1090" y="1119" as="sourcePoint" />
            <mxPoint x="1420" y="1015" as="targetPoint" />
          </mxGeometry>
        </mxCell>
        <mxCell id="-qxYex-KwS0y-Op3rTVl-103" value="" style="endArrow=none;html=1;rounded=0;entryX=0;entryY=0.5;entryDx=0;entryDy=0;" parent="1" source="-qxYex-KwS0y-Op3rTVl-82" target="-qxYex-KwS0y-Op3rTVl-89" edge="1">
          <mxGeometry width="50" height="50" relative="1" as="geometry">
            <mxPoint x="1080" y="1145" as="sourcePoint" />
            <mxPoint x="1440" y="899" as="targetPoint" />
          </mxGeometry>
        </mxCell>
        <mxCell id="-qxYex-KwS0y-Op3rTVl-104" value="" style="endArrow=none;html=1;rounded=0;entryX=0;entryY=0.3;entryDx=0;entryDy=0;entryPerimeter=0;" parent="1" source="-qxYex-KwS0y-Op3rTVl-82" target="-qxYex-KwS0y-Op3rTVl-87" edge="1">
          <mxGeometry width="50" height="50" relative="1" as="geometry">
            <mxPoint x="1090" y="1145" as="sourcePoint" />
            <mxPoint x="1420" y="1239" as="targetPoint" />
          </mxGeometry>
        </mxCell>
        <mxCell id="-qxYex-KwS0y-Op3rTVl-116" value="&amp;lt;&amp;lt;include&amp;gt;&amp;gt;" style="endArrow=open;endSize=12;dashed=1;html=1;rounded=0;entryX=1.002;entryY=0.304;entryDx=0;entryDy=0;entryPerimeter=0;" parent="1" source="-qxYex-KwS0y-Op3rTVl-88" target="-qxYex-KwS0y-Op3rTVl-84" edge="1">
          <mxGeometry width="160" relative="1" as="geometry">
            <mxPoint x="1457" y="863" as="sourcePoint" />
            <mxPoint x="1278" y="1105" as="targetPoint" />
          </mxGeometry>
        </mxCell>
        <mxCell id="-qxYex-KwS0y-Op3rTVl-117" value="&amp;lt;&amp;lt;include&amp;gt;&amp;gt;" style="endArrow=open;endSize=12;dashed=1;html=1;rounded=0;entryX=0.969;entryY=0.793;entryDx=0;entryDy=0;entryPerimeter=0;" parent="1" source="-qxYex-KwS0y-Op3rTVl-89" target="-qxYex-KwS0y-Op3rTVl-84" edge="1">
          <mxGeometry width="160" relative="1" as="geometry">
            <mxPoint x="1467" y="873" as="sourcePoint" />
            <mxPoint x="1288" y="1115" as="targetPoint" />
          </mxGeometry>
        </mxCell>
        <mxCell id="-qxYex-KwS0y-Op3rTVl-118" value="&amp;lt;&amp;lt;include&amp;gt;&amp;gt;" style="endArrow=open;endSize=12;dashed=1;html=1;rounded=0;exitX=0;exitY=0;exitDx=0;exitDy=0;entryX=0.769;entryY=0.971;entryDx=0;entryDy=0;entryPerimeter=0;" parent="1" source="-qxYex-KwS0y-Op3rTVl-87" target="-qxYex-KwS0y-Op3rTVl-84" edge="1">
          <mxGeometry width="160" relative="1" as="geometry">
            <mxPoint x="1477" y="883" as="sourcePoint" />
            <mxPoint x="1298" y="1125" as="targetPoint" />
          </mxGeometry>
        </mxCell>
        <mxCell id="-qxYex-KwS0y-Op3rTVl-120" value="Student" style="shape=umlActor;verticalLabelPosition=bottom;verticalAlign=top;html=1;outlineConnect=0;" parent="1" vertex="1">
          <mxGeometry x="1070" y="-1515" width="40" height="60" as="geometry" />
        </mxCell>
        <mxCell id="-qxYex-KwS0y-Op3rTVl-121" value="Đăng xuất" style="ellipse;whiteSpace=wrap;html=1;" parent="1" vertex="1">
          <mxGeometry x="1160" y="-1700" width="100" height="50" as="geometry" />
        </mxCell>
        <mxCell id="-qxYex-KwS0y-Op3rTVl-122" value="Đăng nhập" style="ellipse;whiteSpace=wrap;html=1;" parent="1" vertex="1">
          <mxGeometry x="1221" y="-1510" width="100" height="50" as="geometry" />
        </mxCell>
        <mxCell id="-qxYex-KwS0y-Op3rTVl-123" value="Hủy lớp học phần đã đăng ký" style="ellipse;whiteSpace=wrap;html=1;" parent="1" vertex="1">
          <mxGeometry x="1440" y="-1190" width="100" height="50" as="geometry" />
        </mxCell>
        <mxCell id="-qxYex-KwS0y-Op3rTVl-124" value="Đánh giá giảng viên&amp;nbsp;" style="ellipse;whiteSpace=wrap;html=1;" parent="1" vertex="1">
          <mxGeometry x="1440" y="-1800" width="100" height="50" as="geometry" />
        </mxCell>
        <mxCell id="-qxYex-KwS0y-Op3rTVl-125" value="Đăng ký lớp học phần" style="ellipse;whiteSpace=wrap;html=1;" parent="1" vertex="1">
          <mxGeometry x="1440" y="-1295" width="100" height="50" as="geometry" />
        </mxCell>
        <mxCell id="-qxYex-KwS0y-Op3rTVl-126" value="Xem lớp học phần" style="ellipse;whiteSpace=wrap;html=1;" parent="1" vertex="1">
          <mxGeometry x="1440" y="-1620" width="100" height="50" as="geometry" />
        </mxCell>
        <mxCell id="-qxYex-KwS0y-Op3rTVl-127" value="Xem kết quả học tập&amp;nbsp;" style="ellipse;whiteSpace=wrap;html=1;" parent="1" vertex="1">
          <mxGeometry x="1440" y="-1410" width="100" height="50" as="geometry" />
        </mxCell>
        <mxCell id="-qxYex-KwS0y-Op3rTVl-129" value="" style="endArrow=none;html=1;rounded=0;exitX=0.75;exitY=0.1;exitDx=0;exitDy=0;exitPerimeter=0;" parent="1" source="-qxYex-KwS0y-Op3rTVl-120" target="-qxYex-KwS0y-Op3rTVl-124" edge="1">
          <mxGeometry width="50" height="50" relative="1" as="geometry">
            <mxPoint x="1250" y="-1520" as="sourcePoint" />
            <mxPoint x="1350" y="-1520" as="targetPoint" />
          </mxGeometry>
        </mxCell>
        <mxCell id="-qxYex-KwS0y-Op3rTVl-130" value="" style="endArrow=none;html=1;rounded=0;entryX=0;entryY=0.5;entryDx=0;entryDy=0;" parent="1" source="-qxYex-KwS0y-Op3rTVl-120" target="-qxYex-KwS0y-Op3rTVl-126" edge="1">
          <mxGeometry width="50" height="50" relative="1" as="geometry">
            <mxPoint x="1260" y="-1504" as="sourcePoint" />
            <mxPoint x="1423" y="-1731" as="targetPoint" />
          </mxGeometry>
        </mxCell>
        <mxCell id="-qxYex-KwS0y-Op3rTVl-134" value="" style="endArrow=none;html=1;rounded=0;entryX=0;entryY=0.5;entryDx=0;entryDy=0;" parent="1" source="-qxYex-KwS0y-Op3rTVl-120" target="-qxYex-KwS0y-Op3rTVl-122" edge="1">
          <mxGeometry width="50" height="50" relative="1" as="geometry">
            <mxPoint x="1120" y="-1481" as="sourcePoint" />
            <mxPoint x="1450" y="-1585" as="targetPoint" />
          </mxGeometry>
        </mxCell>
        <mxCell id="-qxYex-KwS0y-Op3rTVl-141" value="" style="endArrow=none;html=1;rounded=0;entryX=0;entryY=0.5;entryDx=0;entryDy=0;" parent="1" source="-qxYex-KwS0y-Op3rTVl-120" target="-qxYex-KwS0y-Op3rTVl-127" edge="1">
          <mxGeometry width="50" height="50" relative="1" as="geometry">
            <mxPoint x="1110" y="-1455" as="sourcePoint" />
            <mxPoint x="1470" y="-1701" as="targetPoint" />
          </mxGeometry>
        </mxCell>
        <mxCell id="-qxYex-KwS0y-Op3rTVl-142" value="" style="endArrow=none;html=1;rounded=0;entryX=0;entryY=0.3;entryDx=0;entryDy=0;entryPerimeter=0;" parent="1" source="-qxYex-KwS0y-Op3rTVl-120" target="-qxYex-KwS0y-Op3rTVl-125" edge="1">
          <mxGeometry width="50" height="50" relative="1" as="geometry">
            <mxPoint x="1120" y="-1455" as="sourcePoint" />
            <mxPoint x="1450" y="-1361" as="targetPoint" />
          </mxGeometry>
        </mxCell>
        <mxCell id="-qxYex-KwS0y-Op3rTVl-143" value="" style="endArrow=none;html=1;rounded=0;entryX=0;entryY=0.5;entryDx=0;entryDy=0;" parent="1" source="-qxYex-KwS0y-Op3rTVl-120" target="-qxYex-KwS0y-Op3rTVl-123" edge="1">
          <mxGeometry width="50" height="50" relative="1" as="geometry">
            <mxPoint x="1110" y="-1448" as="sourcePoint" />
            <mxPoint x="1440" y="-1255" as="targetPoint" />
          </mxGeometry>
        </mxCell>
        <mxCell id="-qxYex-KwS0y-Op3rTVl-153" value="&amp;lt;&amp;lt;include&amp;gt;&amp;gt;" style="endArrow=open;endSize=12;dashed=1;html=1;rounded=0;exitX=0.368;exitY=1.06;exitDx=0;exitDy=0;entryX=0.769;entryY=0.104;entryDx=0;entryDy=0;exitPerimeter=0;entryPerimeter=0;" parent="1" source="-qxYex-KwS0y-Op3rTVl-124" target="-qxYex-KwS0y-Op3rTVl-122" edge="1">
          <mxGeometry width="160" relative="1" as="geometry">
            <mxPoint x="1477" y="-1641" as="sourcePoint" />
            <mxPoint x="1340" y="-1690" as="targetPoint" />
          </mxGeometry>
        </mxCell>
        <mxCell id="-qxYex-KwS0y-Op3rTVl-154" value="&amp;lt;&amp;lt;include&amp;gt;&amp;gt;" style="endArrow=open;endSize=12;dashed=1;html=1;rounded=0;entryX=1.002;entryY=0.304;entryDx=0;entryDy=0;entryPerimeter=0;" parent="1" source="-qxYex-KwS0y-Op3rTVl-126" target="-qxYex-KwS0y-Op3rTVl-122" edge="1">
          <mxGeometry width="160" relative="1" as="geometry">
            <mxPoint x="1487" y="-1737" as="sourcePoint" />
            <mxPoint x="1308" y="-1495" as="targetPoint" />
          </mxGeometry>
        </mxCell>
        <mxCell id="-qxYex-KwS0y-Op3rTVl-155" value="&amp;lt;&amp;lt;include&amp;gt;&amp;gt;" style="endArrow=open;endSize=12;dashed=1;html=1;rounded=0;entryX=0.969;entryY=0.793;entryDx=0;entryDy=0;entryPerimeter=0;" parent="1" source="-qxYex-KwS0y-Op3rTVl-127" target="-qxYex-KwS0y-Op3rTVl-122" edge="1">
          <mxGeometry width="160" relative="1" as="geometry">
            <mxPoint x="1497" y="-1727" as="sourcePoint" />
            <mxPoint x="1318" y="-1485" as="targetPoint" />
          </mxGeometry>
        </mxCell>
        <mxCell id="-qxYex-KwS0y-Op3rTVl-156" value="&amp;lt;&amp;lt;include&amp;gt;&amp;gt;" style="endArrow=open;endSize=12;dashed=1;html=1;rounded=0;exitX=0;exitY=0;exitDx=0;exitDy=0;entryX=0.769;entryY=0.971;entryDx=0;entryDy=0;entryPerimeter=0;" parent="1" source="-qxYex-KwS0y-Op3rTVl-125" target="-qxYex-KwS0y-Op3rTVl-122" edge="1">
          <mxGeometry width="160" relative="1" as="geometry">
            <mxPoint x="1507" y="-1717" as="sourcePoint" />
            <mxPoint x="1328" y="-1475" as="targetPoint" />
          </mxGeometry>
        </mxCell>
        <mxCell id="-qxYex-KwS0y-Op3rTVl-157" value="&amp;lt;&amp;lt;include&amp;gt;&amp;gt;" style="endArrow=open;endSize=12;dashed=1;html=1;rounded=0;entryX=0.5;entryY=1;entryDx=0;entryDy=0;" parent="1" source="-qxYex-KwS0y-Op3rTVl-123" target="-qxYex-KwS0y-Op3rTVl-122" edge="1">
          <mxGeometry width="160" relative="1" as="geometry">
            <mxPoint x="1517" y="-1707" as="sourcePoint" />
            <mxPoint x="1338" y="-1465" as="targetPoint" />
          </mxGeometry>
        </mxCell>
        <mxCell id="-qxYex-KwS0y-Op3rTVl-161" value="Tìm kiếm lớp học phần" style="ellipse;whiteSpace=wrap;html=1;" parent="1" vertex="1">
          <mxGeometry x="1610" y="-50" width="100" height="50" as="geometry" />
        </mxCell>
        <mxCell id="-qxYex-KwS0y-Op3rTVl-162" value="Tìm kiếm học phần" style="ellipse;whiteSpace=wrap;html=1;" parent="1" vertex="1">
          <mxGeometry x="1640" y="-230" width="100" height="50" as="geometry" />
        </mxCell>
        <mxCell id="-qxYex-KwS0y-Op3rTVl-163" value="Tìm kiếm sinh viên" style="ellipse;whiteSpace=wrap;html=1;" parent="1" vertex="1">
          <mxGeometry x="1640" y="-160" width="100" height="50" as="geometry" />
        </mxCell>
        <mxCell id="-qxYex-KwS0y-Op3rTVl-164" value="Tìm kiếm sinh viên" style="ellipse;whiteSpace=wrap;html=1;" parent="1" vertex="1">
          <mxGeometry x="1460" y="-110" width="100" height="50" as="geometry" />
        </mxCell>
        <mxCell id="-qxYex-KwS0y-Op3rTVl-165" value="&amp;lt;&amp;lt;extend&amp;gt;&amp;gt;" style="endArrow=open;endSize=12;dashed=1;html=1;rounded=0;entryX=0.789;entryY=0.951;entryDx=0;entryDy=0;entryPerimeter=0;" parent="1" source="-qxYex-KwS0y-Op3rTVl-162" target="-qxYex-KwS0y-Op3rTVl-43" edge="1">
          <mxGeometry width="160" relative="1" as="geometry">
            <mxPoint x="1652" y="-285" as="sourcePoint" />
            <mxPoint x="1515" y="-334" as="targetPoint" />
          </mxGeometry>
        </mxCell>
        <mxCell id="-qxYex-KwS0y-Op3rTVl-166" value="&amp;lt;&amp;lt;extend&amp;gt;&amp;gt;" style="endArrow=open;endSize=12;dashed=1;html=1;rounded=0;exitX=0;exitY=0;exitDx=0;exitDy=0;" parent="1" source="-qxYex-KwS0y-Op3rTVl-163" target="-qxYex-KwS0y-Op3rTVl-45" edge="1">
          <mxGeometry width="160" relative="1" as="geometry">
            <mxPoint x="1662" y="-275" as="sourcePoint" />
            <mxPoint x="1525" y="-324" as="targetPoint" />
          </mxGeometry>
        </mxCell>
        <mxCell id="-qxYex-KwS0y-Op3rTVl-167" value="&amp;lt;&amp;lt;extend&amp;gt;&amp;gt;" style="endArrow=open;endSize=12;dashed=1;html=1;rounded=0;exitX=0.422;exitY=1.062;exitDx=0;exitDy=0;exitPerimeter=0;entryX=0.647;entryY=0.049;entryDx=0;entryDy=0;entryPerimeter=0;" parent="1" source="-qxYex-KwS0y-Op3rTVl-164" target="-qxYex-KwS0y-Op3rTVl-47" edge="1">
          <mxGeometry width="160" relative="1" as="geometry">
            <mxPoint x="1610" y="23.5" as="sourcePoint" />
            <mxPoint x="1465" y="7" as="targetPoint" />
          </mxGeometry>
        </mxCell>
        <mxCell id="-qxYex-KwS0y-Op3rTVl-169" value="&amp;lt;&amp;lt;extend&amp;gt;&amp;gt;" style="endArrow=open;endSize=12;dashed=1;html=1;rounded=0;entryX=0.602;entryY=0.096;entryDx=0;entryDy=0;exitX=0;exitY=1;exitDx=0;exitDy=0;entryPerimeter=0;" parent="1" source="-qxYex-KwS0y-Op3rTVl-161" target="-qxYex-KwS0y-Op3rTVl-44" edge="1">
          <mxGeometry width="160" relative="1" as="geometry">
            <mxPoint x="1610" y="24.5" as="sourcePoint" />
            <mxPoint x="1482" y="85.5" as="targetPoint" />
          </mxGeometry>
        </mxCell>
        <mxCell id="-qxYex-KwS0y-Op3rTVl-170" value="Tìm kiếm lớp học phần" style="ellipse;whiteSpace=wrap;html=1;" parent="1" vertex="1">
          <mxGeometry x="1670" y="-1620" width="100" height="50" as="geometry" />
        </mxCell>
        <mxCell id="-qxYex-KwS0y-Op3rTVl-171" value="&amp;lt;&amp;lt;extend&amp;gt;&amp;gt;" style="endArrow=open;endSize=12;dashed=1;html=1;rounded=0;entryX=1;entryY=0.5;entryDx=0;entryDy=0;exitX=0;exitY=0.5;exitDx=0;exitDy=0;" parent="1" source="-qxYex-KwS0y-Op3rTVl-170" target="-qxYex-KwS0y-Op3rTVl-126" edge="1">
          <mxGeometry width="160" relative="1" as="geometry">
            <mxPoint x="1720" y="-1433" as="sourcePoint" />
            <mxPoint x="1550" y="-1540" as="targetPoint" />
          </mxGeometry>
        </mxCell>
        <mxCell id="-qxYex-KwS0y-Op3rTVl-172" value="Xem thống kê" style="ellipse;whiteSpace=wrap;html=1;" parent="1" vertex="1">
          <mxGeometry x="1360" y="-1100" width="100" height="50" as="geometry" />
        </mxCell>
        <mxCell id="-qxYex-KwS0y-Op3rTVl-173" value="" style="endArrow=none;html=1;rounded=0;exitX=1;exitY=1;exitDx=0;exitDy=0;exitPerimeter=0;" parent="1" source="-qxYex-KwS0y-Op3rTVl-120" target="-qxYex-KwS0y-Op3rTVl-172" edge="1">
          <mxGeometry width="50" height="50" relative="1" as="geometry">
            <mxPoint x="1060" y="-1410" as="sourcePoint" />
            <mxPoint x="1390" y="-1108" as="targetPoint" />
          </mxGeometry>
        </mxCell>
        <mxCell id="-qxYex-KwS0y-Op3rTVl-174" value="&amp;lt;&amp;lt;include&amp;gt;&amp;gt;" style="endArrow=open;endSize=12;dashed=1;html=1;rounded=0;entryX=0.374;entryY=0.983;entryDx=0;entryDy=0;exitX=0.5;exitY=0;exitDx=0;exitDy=0;entryPerimeter=0;" parent="1" source="-qxYex-KwS0y-Op3rTVl-172" target="-qxYex-KwS0y-Op3rTVl-122" edge="1">
          <mxGeometry width="160" relative="1" as="geometry">
            <mxPoint x="1423" y="-1183" as="sourcePoint" />
            <mxPoint x="1221" y="-1455" as="targetPoint" />
          </mxGeometry>
        </mxCell>
        <mxCell id="lpurTFKMLMxhkQMfOlet-1" value="&amp;lt;&amp;lt;extend&amp;gt;&amp;gt;" style="endArrow=open;endSize=12;dashed=1;html=1;rounded=0;entryX=0.39;entryY=0;entryDx=0;entryDy=0;exitX=0.5;exitY=1;exitDx=0;exitDy=0;entryPerimeter=0;" parent="1" source="-qxYex-KwS0y-Op3rTVl-121" target="-qxYex-KwS0y-Op3rTVl-122" edge="1">
          <mxGeometry width="160" relative="1" as="geometry">
            <mxPoint x="1210" y="-1610" as="sourcePoint" />
            <mxPoint x="1080" y="-1610" as="targetPoint" />
          </mxGeometry>
        </mxCell>
        <mxCell id="lpurTFKMLMxhkQMfOlet-2" value="&amp;lt;&amp;lt;extend&amp;gt;&amp;gt;" style="endArrow=open;endSize=12;dashed=1;html=1;rounded=0;entryX=0.5;entryY=0;entryDx=0;entryDy=0;exitX=0.5;exitY=1;exitDx=0;exitDy=0;" parent="1" source="-qxYex-KwS0y-Op3rTVl-38" target="-qxYex-KwS0y-Op3rTVl-40" edge="1">
          <mxGeometry width="160" relative="1" as="geometry">
            <mxPoint x="1120" y="-180" as="sourcePoint" />
            <mxPoint x="950" y="-287" as="targetPoint" />
          </mxGeometry>
        </mxCell>
        <mxCell id="lpurTFKMLMxhkQMfOlet-3" value="&amp;lt;&amp;lt;extend&amp;gt;&amp;gt;" style="endArrow=open;endSize=12;dashed=1;html=1;rounded=0;entryX=0.5;entryY=0;entryDx=0;entryDy=0;exitX=0.5;exitY=1;exitDx=0;exitDy=0;" parent="1" source="-qxYex-KwS0y-Op3rTVl-83" target="-qxYex-KwS0y-Op3rTVl-84" edge="1">
          <mxGeometry width="160" relative="1" as="geometry">
            <mxPoint x="1205" y="970" as="sourcePoint" />
            <mxPoint x="1050" y="1107" as="targetPoint" />
          </mxGeometry>
        </mxCell>
      </root>
    </mxGraphModel>
  </diagram>
</mxfile>
